<svg xmlns="http://www.w3.org/2000/svg" width="1999" height="317" viewBox="0 0 1999 317">
<g>
<path d="M 13.00 314.33 C8.37,312.34 5.24,309.35 2.80,304.59 C0.68,300.45 0.69,295.23 2.85,280.00 C3.36,276.42 4.72,266.08 5.89,257.00 C7.05,247.93 8.28,238.70 8.60,236.50 C8.93,234.30 9.57,229.57 10.02,226.00 C10.48,222.43 11.32,216.12 11.89,212.00 C12.46,207.88 13.37,201.35 13.90,197.50 C14.93,190.05 15.98,182.07 18.54,162.00 C21.64,137.77 22.01,134.93 23.08,127.25 C23.67,122.99 24.53,116.57 25.00,113.00 C25.86,106.36 27.25,96.00 28.95,83.50 C29.47,79.65 30.61,70.88 31.49,64.00 C37.95,13.10 38.23,11.86 44.66,5.84 C51.19,-0.26 46.61,0.00 146.06,0.00 C205.53,0.00 237.10,0.35 237.50,1.00 C237.84,1.55 238.91,2.00 239.87,2.00 C240.84,2.00 242.90,3.33 244.46,4.95 L 247.29 7.91 L 250.87 4.95 C252.84,3.33 255.23,2.00 256.17,2.00 C257.11,2.00 258.16,1.55 258.50,1.00 C258.90,0.35 290.76,0.00 350.81,0.00 C441.57,0.01 442.53,0.03 445.87,2.06 C449.47,4.26 452.00,4.04 452.00,1.53 C452.00,0.17 462.76,0.00 550.95,0.00 C652.63,0.00 652.64,0.00 657.22,3.83 C658.77,5.11 659.05,4.99 659.95,2.63 L 660.95 0.00 L 860.93 0.00 C1011.77,0.00 1061.54,0.29 1063.48,1.17 C1065.45,2.07 1066.33,2.07 1067.23,1.17 C1068.12,0.28 1111.05,0.00 1244.15,0.00 L 1419.89 0.00 L 1424.45 2.42 L 1429.00 4.84 L 1429.61 2.42 L 1430.22 0.00 L 1714.66 0.00 L 1999.11 0.00 L 1998.66 13.75 C1998.42,21.31 1997.74,30.42 1997.14,34.00 C1995.74,42.47 1994.49,51.52 1992.53,67.46 C1991.61,74.89 1990.41,80.75 1989.71,81.20 C1989.05,81.62 1983.04,81.98 1976.37,81.98 L 1964.25 82.00 L 1963.66 87.25 C1963.34,90.14 1962.58,96.10 1961.96,100.50 C1961.35,104.90 1960.47,111.43 1960.00,115.00 C1959.53,118.57 1958.68,124.88 1958.10,129.00 C1957.53,133.12 1956.61,140.10 1956.05,144.50 C1955.16,151.66 1954.03,160.35 1950.95,183.75 C1948.80,200.10 1947.09,212.77 1944.97,228.00 C1944.47,231.57 1943.64,237.88 1943.12,242.00 C1940.61,261.99 1937.56,285.43 1936.03,296.50 C1935.58,299.80 1934.88,304.99 1934.48,308.04 C1933.79,313.40 1933.63,313.63 1929.90,314.79 C1927.10,315.67 1912.28,316.00 1876.10,316.00 C1848.63,316.00 1825.45,315.73 1824.58,315.39 C1822.72,314.68 1822.47,308.37 1823.95,299.92 C1824.48,296.94 1825.62,288.42 1826.49,281.00 C1827.36,273.58 1828.49,264.58 1829.01,261.00 C1830.43,251.13 1831.12,246.13 1832.02,239.00 C1832.48,235.43 1833.33,229.01 1833.92,224.75 C1834.52,220.49 1835.43,213.74 1835.95,209.75 C1839.03,186.35 1840.16,177.66 1841.05,170.50 C1842.17,161.58 1843.47,151.85 1845.08,140.25 C1845.67,135.99 1846.53,129.57 1847.00,126.00 C1847.46,122.43 1848.33,115.90 1848.92,111.50 C1851.20,94.54 1851.91,88.39 1851.96,85.25 L 1852.00 82.00 L 1845.11 82.00 C1837.08,82.00 1837.24,81.80 1835.82,93.00 C1835.29,97.12 1834.45,103.43 1833.94,107.00 C1832.33,118.41 1831.14,127.28 1830.14,135.50 C1829.60,139.90 1828.65,147.32 1828.04,152.00 C1827.42,156.68 1826.24,165.90 1825.42,172.50 C1823.77,185.76 1822.55,195.06 1820.92,206.75 C1820.33,211.01 1819.47,217.43 1819.00,221.00 C1818.53,224.57 1817.68,230.88 1817.10,235.00 C1816.53,239.12 1815.61,246.10 1815.05,250.50 C1814.06,258.41 1811.77,275.93 1809.96,289.50 C1809.44,293.35 1808.60,299.88 1808.08,304.00 C1807.57,308.12 1806.84,312.51 1806.46,313.75 L 1805.77 316.00 L 1492.88 316.00 L 1179.99 316.00 L 1180.58 308.75 C1180.90,304.76 1181.39,300.83 1181.65,300.00 C1181.92,299.17 1182.58,294.90 1183.11,290.50 C1185.14,273.82 1187.11,258.23 1188.11,251.00 C1188.68,246.88 1189.53,240.57 1190.00,237.00 C1190.47,233.43 1191.33,227.01 1191.92,222.75 C1192.52,218.49 1193.43,211.74 1193.97,207.75 C1194.50,203.76 1195.36,197.35 1195.88,193.50 C1196.75,187.15 1198.68,172.16 1201.04,153.50 C1201.53,149.65 1202.41,143.12 1203.00,139.00 C1203.59,134.88 1204.49,128.35 1205.00,124.50 C1205.51,120.65 1206.37,114.35 1206.90,110.50 C1208.65,97.86 1209.98,86.54 1209.99,84.21 C1210.00,81.99 1209.75,81.93 1202.25,82.21 L 1194.50 82.50 L 1193.85 87.50 C1193.50,90.25 1192.68,96.32 1192.03,101.00 C1191.38,105.68 1190.46,112.65 1189.98,116.50 C1189.49,120.35 1188.65,126.65 1188.11,130.50 C1187.57,134.35 1186.64,141.55 1186.06,146.50 C1185.47,151.45 1184.76,156.62 1184.49,158.00 C1184.21,159.38 1183.53,164.55 1182.96,169.50 C1181.99,178.10 1180.89,186.40 1178.99,199.50 C1178.51,202.80 1177.66,209.10 1177.09,213.50 C1176.53,217.90 1175.67,224.43 1175.18,228.00 C1174.69,231.57 1173.32,242.60 1172.12,252.50 C1170.93,262.40 1169.51,272.42 1168.98,274.76 C1168.44,277.11 1168.00,280.82 1168.00,283.00 C1168.00,285.18 1167.45,289.03 1166.78,291.54 C1165.77,295.30 1165.80,296.26 1166.92,296.95 C1167.84,297.52 1168.05,298.69 1167.58,300.64 C1167.19,302.21 1166.52,305.52 1166.08,308.00 C1164.51,316.86 1170.74,316.00 1108.26,316.00 L 1052.74 316.00 L 1053.33 308.75 C1053.65,304.76 1054.35,298.35 1054.88,294.50 C1055.41,290.65 1056.60,281.42 1057.54,274.00 C1059.64,257.29 1060.73,248.95 1061.93,240.25 C1062.45,236.54 1063.35,229.90 1063.94,225.50 C1064.97,217.83 1065.60,213.20 1067.99,195.50 C1068.59,191.10 1069.75,182.10 1070.58,175.50 C1072.21,162.43 1073.42,153.23 1075.07,141.25 C1077.30,125.10 1077.82,121.26 1078.88,113.00 C1079.48,108.32 1080.58,100.00 1081.33,94.50 C1082.08,89.00 1082.49,83.94 1082.24,83.25 C1081.94,82.42 1079.52,82.00 1075.00,82.00 C1069.47,82.00 1068.09,82.32 1067.52,83.75 C1066.90,85.30 1066.15,90.77 1064.46,106.00 C1063.64,113.41 1061.76,121.43 1060.59,122.50 C1059.93,123.11 1059.48,128.00 1059.46,135.00 C1059.43,141.32 1058.88,150.10 1058.22,154.50 C1057.57,158.90 1056.33,167.90 1055.47,174.50 C1054.62,181.10 1053.49,189.54 1052.96,193.25 C1052.43,196.96 1051.53,203.26 1050.97,207.25 C1050.40,211.24 1049.50,217.65 1048.98,221.50 C1048.45,225.35 1047.78,230.07 1047.49,232.00 C1046.67,237.33 1045.16,248.25 1043.49,261.00 C1042.66,267.33 1041.51,276.10 1040.93,280.50 C1037.83,303.99 1034.33,310.81 1023.41,314.61 C1018.19,316.43 845.21,316.67 840.04,314.86 C837.61,314.02 836.61,314.02 836.08,314.87 C834.98,316.65 205.00,316.20 205.00,314.42 C205.00,312.64 203.27,311.71 201.75,312.68 C196.79,315.86 193.57,315.97 105.00,315.90 C28.49,315.85 16.03,315.63 13.00,314.33 ZM 189.99 297.91 C193.30,297.20 195.55,296.06 196.45,294.66 C197.20,293.47 198.36,288.00 199.02,282.50 C199.68,277.00 200.59,269.80 201.04,266.50 C202.47,256.05 204.03,244.72 204.97,238.00 C208.99,209.12 212.88,179.82 213.69,172.24 L 214.25 166.98 L 176.37 167.24 L 138.50 167.50 L 137.76 172.50 C137.35,175.25 136.60,180.65 136.09,184.50 C135.26,190.78 134.55,196.06 130.93,223.00 C126.78,253.93 127.70,250.96 122.14,251.20 C114.81,251.52 110.79,251.17 106.65,249.84 L 102.80 248.61 L 103.34 242.06 C103.63,238.45 104.34,232.12 104.90,228.00 C107.34,210.17 108.05,204.84 109.54,193.50 C110.40,186.90 111.53,178.35 112.04,174.50 C112.56,170.65 113.46,163.90 114.05,159.50 C114.64,155.10 115.51,148.80 115.99,145.50 C116.47,142.20 117.30,136.12 117.85,132.00 C118.39,127.88 119.57,119.10 120.46,112.50 C121.35,105.90 122.52,96.90 123.07,92.50 C125.32,74.29 125.90,70.36 126.75,67.50 L 127.64 64.50 L 139.07 64.50 L 150.50 64.50 L 150.41 71.50 C150.36,75.35 149.81,82.10 149.20,86.50 C148.13,94.24 145.88,111.54 143.95,127.00 C143.44,131.12 142.74,135.96 142.39,137.75 L 141.77 141.00 L 179.69 141.00 L 217.60 141.00 L 218.80 135.19 C219.46,131.99 220.00,127.98 220.00,126.27 C220.00,124.55 220.43,120.98 220.95,118.33 C221.48,115.67 222.62,107.20 223.49,99.50 C224.36,91.80 225.49,82.57 226.01,79.00 C226.99,72.20 227.45,68.72 229.12,55.50 C229.68,51.10 230.56,44.35 231.08,40.50 C231.60,36.65 232.29,30.28 232.62,26.34 C233.16,19.79 233.03,19.09 231.13,18.07 C229.64,17.27 204.77,17.03 143.06,17.23 C63.48,17.48 56.94,17.63 55.36,19.21 C53.70,20.88 53.05,23.77 50.99,38.75 C50.45,42.74 49.52,49.49 48.93,53.75 C48.34,58.01 47.66,63.30 47.42,65.50 C47.18,67.70 46.55,72.43 46.02,76.00 C44.23,88.14 42.99,97.48 41.89,107.00 C40.83,116.10 40.49,118.75 38.07,136.25 C36.94,144.41 35.63,154.19 34.05,166.25 C31.63,184.66 29.87,198.19 28.87,206.00 C28.27,210.68 27.41,217.20 26.95,220.50 C26.15,226.29 24.80,236.37 23.01,250.00 C21.23,263.58 19.99,272.74 19.04,279.50 C18.49,283.35 17.76,288.78 17.41,291.57 L 16.77 296.64 L 20.13 297.72 C24.87,299.24 182.98,299.41 189.99,297.91 ZM 298.02 296.44 C298.56,295.04 299.70,288.18 300.57,281.19 C302.72,263.83 303.81,255.36 305.08,246.25 C305.67,241.99 306.53,235.57 306.99,232.00 C307.46,228.43 308.16,223.33 308.56,220.67 L 309.28 215.84 L 318.39 216.49 C323.40,216.84 328.78,217.67 330.33,218.32 C333.15,219.49 333.17,219.54 332.61,226.50 C332.05,233.41 331.03,241.84 329.11,255.50 C328.57,259.35 327.64,266.55 327.03,271.50 C326.43,276.45 325.51,283.20 324.98,286.50 C324.45,289.80 324.01,293.74 324.01,295.25 L 324.00 298.00 L 358.86 298.00 C378.03,298.00 395.78,297.72 398.29,297.37 C403.48,296.66 403.17,297.41 405.07,281.00 C406.02,272.78 407.01,265.17 409.02,250.50 C409.55,246.65 410.42,240.12 410.95,236.00 C411.48,231.88 412.36,225.12 412.92,221.00 C414.68,207.83 417.04,189.76 418.14,181.00 C418.73,176.32 419.59,169.80 420.05,166.50 C420.82,160.94 421.84,153.31 423.99,137.00 C424.46,133.43 425.30,127.12 425.85,123.00 C426.95,114.69 429.66,93.59 431.12,82.00 C432.42,71.69 433.84,60.83 434.98,52.50 C439.29,21.09 439.48,18.92 438.06,18.04 C436.11,16.83 268.35,16.83 263.88,18.03 C260.86,18.84 259.90,19.67 259.45,21.79 C259.14,23.28 258.67,25.40 258.41,26.50 C258.15,27.60 257.47,32.10 256.90,36.50 C256.33,40.90 255.46,47.42 254.96,51.00 C253.09,64.48 250.92,81.07 248.49,100.50 C246.14,119.27 245.14,127.00 243.92,135.75 C243.33,140.01 242.47,146.43 242.00,150.00 C241.53,153.57 240.67,159.99 240.08,164.25 C238.43,176.10 237.24,185.26 235.51,199.50 C233.92,212.57 232.76,221.54 230.98,234.50 C229.27,246.98 227.88,257.36 227.05,264.00 C226.60,267.58 225.65,274.77 224.93,280.00 C224.21,285.23 223.60,291.30 223.56,293.50 L 223.50 297.50 L 260.00 298.02 C280.08,298.30 296.62,298.64 296.77,298.77 C296.93,298.90 297.49,297.85 298.02,296.44 ZM 507.42 293.73 C507.79,291.40 508.54,286.12 509.08,282.00 C509.62,277.88 510.47,271.58 510.97,268.00 C513.89,247.05 516.66,226.25 519.50,204.00 C521.61,187.46 522.77,178.63 524.08,169.25 C524.67,164.99 525.53,158.57 526.00,155.00 C526.47,151.43 527.30,145.12 527.85,141.00 C532.03,109.82 535.75,80.95 536.82,71.50 L 537.50 65.50 L 543.00 64.75 C549.61,63.85 555.79,64.55 560.06,66.68 C562.88,68.08 563.13,68.57 562.51,71.37 C562.13,73.09 561.42,77.65 560.95,81.50 C560.47,85.35 559.62,91.88 559.07,96.00 C558.51,100.12 557.34,109.12 556.46,116.00 C555.58,122.88 554.41,131.88 553.85,136.00 C553.30,140.12 552.47,146.43 552.00,150.00 C551.53,153.57 550.67,159.99 550.08,164.25 C548.75,173.79 547.30,184.69 546.07,194.25 C545.56,198.24 544.40,207.12 543.50,214.00 C542.60,220.88 541.44,229.76 540.93,233.75 C540.42,237.74 539.52,244.49 538.92,248.75 C538.33,253.01 537.47,259.42 537.00,263.00 C536.54,266.58 535.61,273.33 534.93,278.00 C534.25,282.67 533.66,289.10 533.60,292.28 L 533.50 298.06 L 571.91 298.07 C595.68,298.07 610.70,297.70 611.31,297.09 C611.85,296.55 612.70,292.38 613.21,287.81 C614.10,279.84 614.64,275.52 616.85,259.00 C619.14,241.92 620.41,232.11 624.08,203.25 C624.59,199.26 625.45,192.62 626.00,188.50 C626.55,184.38 627.43,177.74 627.97,173.75 C628.50,169.76 629.37,163.35 629.90,159.50 C630.44,155.65 631.33,148.90 631.89,144.50 C632.45,140.10 633.66,130.65 634.58,123.50 C635.51,116.35 636.62,107.57 637.05,104.00 C637.49,100.43 638.33,94.01 638.92,89.75 C639.98,82.16 641.33,71.97 642.48,63.00 C642.80,60.53 643.49,55.58 644.03,52.00 C644.56,48.42 645.73,39.68 646.62,32.58 C648.18,20.19 648.17,19.60 646.43,18.32 C644.93,17.23 628.40,17.04 555.05,17.24 L 465.50 17.50 L 464.86 23.00 C464.27,28.01 463.68,32.42 460.96,52.00 C460.47,55.58 459.61,61.88 459.07,66.00 C458.52,70.12 457.64,76.65 457.11,80.50 C456.58,84.35 455.40,93.35 454.49,100.50 C453.58,107.65 452.41,116.65 451.88,120.50 C451.36,124.35 450.48,130.88 449.93,135.00 C449.39,139.12 448.51,145.65 447.98,149.50 C447.45,153.35 446.58,159.88 446.05,164.00 C445.52,168.12 444.65,174.65 444.13,178.50 C443.60,182.35 442.26,192.70 441.14,201.50 C440.03,210.30 438.87,219.30 438.57,221.50 C437.33,230.45 435.89,240.87 435.03,247.00 C429.10,289.53 428.33,296.97 429.76,297.85 C430.33,298.21 447.89,298.38 468.77,298.23 L 506.74 297.95 L 507.42 293.73 ZM 817.15 295.14 C817.71,293.69 818.61,288.90 819.15,284.50 C819.69,280.10 820.54,273.58 821.04,270.00 C821.53,266.42 822.36,260.12 822.88,256.00 C823.39,251.88 824.06,247.15 824.36,245.50 C824.66,243.85 825.63,236.20 826.51,228.50 C827.40,220.80 828.59,212.09 829.16,209.15 C829.78,205.94 829.83,203.43 829.28,202.88 C828.76,202.36 812.66,202.09 791.55,202.24 L 754.72 202.50 L 753.38 207.00 C752.64,209.48 752.02,212.93 752.02,214.67 C752.01,216.42 751.56,220.02 751.03,222.67 C750.49,225.33 749.35,232.45 748.48,238.50 C747.61,244.55 746.54,249.86 746.10,250.30 C744.60,251.80 729.70,251.36 725.76,249.69 C722.48,248.30 722.08,247.77 722.50,245.31 C722.75,243.76 723.66,237.10 724.51,230.50 C725.36,223.90 726.27,217.15 726.53,215.50 C727.66,208.43 729.22,198.07 730.00,192.50 C730.47,189.20 731.16,184.36 731.55,181.75 L 732.26 177.00 L 781.55 177.00 C808.66,177.00 831.55,176.73 832.42,176.39 C833.29,176.06 834.00,174.65 834.00,173.26 C834.00,171.87 834.42,167.98 834.94,164.62 C836.46,154.79 837.87,144.01 838.57,136.75 L 839.23 130.00 L 788.64 130.00 L 738.04 130.00 L 738.55 125.25 C738.83,122.64 739.48,117.57 740.00,114.00 C740.52,110.43 741.23,105.47 741.57,103.00 C741.91,100.53 742.56,95.80 743.02,92.50 C743.48,89.20 744.30,83.12 744.84,79.00 C746.71,64.68 746.33,65.30 753.43,64.54 C759.76,63.87 763.23,64.29 768.34,66.35 C771.14,67.49 771.17,67.58 770.60,74.00 C770.29,77.57 769.54,84.10 768.94,88.50 C768.34,92.90 767.77,98.30 767.67,100.50 L 767.50 104.50 L 804.98 104.50 L 842.47 104.50 L 843.22 100.50 C843.64,98.30 844.47,92.90 845.06,88.50 C845.66,84.10 846.55,77.57 847.04,74.00 C847.53,70.43 848.38,63.00 848.92,57.50 C849.46,52.00 850.82,40.75 851.95,32.50 C853.07,24.25 853.99,17.39 854.00,17.26 C854.00,16.87 676.60,18.08 675.39,18.47 C674.31,18.82 673.19,24.97 670.90,43.00 C668.98,58.18 668.33,63.09 664.98,87.50 C664.45,91.35 663.58,97.88 663.05,102.00 C662.52,106.12 661.64,112.65 661.09,116.50 C660.55,120.35 659.37,129.35 658.48,136.50 C656.73,150.44 655.75,157.99 654.06,170.25 C653.48,174.51 652.52,181.49 651.94,185.75 C651.35,190.01 650.49,196.43 650.01,200.00 C649.54,203.57 648.68,210.10 648.09,214.50 C647.51,218.90 646.33,227.90 645.47,234.50 C642.75,255.36 641.96,261.33 641.04,268.00 C639.06,282.23 637.75,292.62 637.63,295.00 L 637.50 297.50 L 723.00 298.00 C770.03,298.27 810.22,298.34 812.32,298.14 C815.35,297.85 816.34,297.24 817.15,295.14 ZM 1015.85 297.83 C1021.97,296.46 1022.29,295.98 1023.89,285.50 C1025.81,272.94 1026.01,271.58 1026.98,264.50 C1027.50,260.65 1028.37,254.35 1028.91,250.50 C1029.81,244.12 1031.59,230.91 1034.02,212.50 C1034.53,208.65 1035.40,202.35 1035.97,198.50 C1036.53,194.65 1037.42,188.35 1037.96,184.50 C1038.49,180.65 1039.38,174.35 1039.93,170.50 C1040.49,166.65 1041.38,160.12 1041.93,156.00 C1042.47,151.88 1043.37,145.12 1043.93,141.00 C1044.48,136.88 1044.95,133.21 1044.97,132.86 C1045.06,130.89 1037.07,130.45 992.50,130.00 C949.63,129.56 943.54,129.31 943.84,128.00 C944.02,127.18 944.63,122.68 945.19,118.00 C945.75,113.32 946.58,106.80 947.04,103.50 C947.49,100.20 948.32,94.12 948.89,90.00 C949.46,85.88 950.37,78.97 950.93,74.65 C951.48,70.33 952.46,66.15 953.11,65.37 C954.04,64.25 956.74,64.00 965.40,64.22 L 976.50 64.50 L 976.38 70.00 C976.32,73.03 975.71,79.55 975.03,84.50 C974.34,89.45 973.72,95.97 973.64,99.00 L 973.50 104.50 L 1009.00 104.78 C1028.53,104.93 1045.46,104.82 1046.63,104.54 C1048.40,104.11 1048.86,103.06 1049.34,98.26 C1049.97,91.98 1051.65,78.56 1052.50,73.00 C1052.79,71.07 1053.47,65.90 1054.02,61.50 C1059.24,19.15 1059.24,19.20 1056.92,17.96 C1055.82,17.37 1021.38,17.00 967.17,17.00 L 879.21 17.00 L 878.61 21.25 C878.28,23.59 877.57,29.55 877.03,34.50 C876.49,39.45 875.57,46.88 874.98,51.00 C874.40,55.12 873.46,62.10 872.90,66.50 C872.34,70.90 871.50,77.20 871.05,80.50 C870.59,83.80 869.71,90.32 869.11,95.00 C868.50,99.68 867.57,106.65 867.04,110.50 C865.58,121.14 865.04,125.40 863.43,139.00 C862.61,145.88 861.52,154.43 861.00,158.00 C859.21,170.38 859.02,175.07 860.29,175.53 C860.96,175.77 883.55,176.10 910.50,176.27 L 959.50 176.58 L 959.32 179.04 C959.22,180.39 958.66,184.76 958.07,188.75 C957.48,192.74 956.58,199.04 956.06,202.75 C955.55,206.46 954.40,214.68 953.51,221.00 C952.63,227.32 951.51,235.65 951.02,239.50 C949.45,251.89 950.55,251.00 936.88,251.00 L 925.00 251.00 L 925.00 246.31 C925.00,243.73 925.43,239.12 925.96,236.06 C928.02,224.22 929.03,216.95 929.65,209.62 L 930.29 202.00 L 893.27 202.00 C864.85,202.00 856.01,202.29 855.25,203.25 C854.70,203.94 854.01,206.75 853.70,209.50 C852.81,217.65 849.52,242.99 846.89,262.00 C844.73,277.56 843.97,283.70 843.39,290.19 L 842.78 296.89 L 846.01 297.72 C851.43,299.13 1009.58,299.23 1015.85,297.83 ZM 1149.36 297.04 C1149.85,296.55 1150.68,292.63 1151.20,288.32 C1152.35,278.86 1153.50,270.02 1154.89,260.00 C1156.80,246.17 1158.07,236.58 1159.58,224.50 C1161.24,211.18 1162.46,201.86 1164.08,190.25 C1164.67,185.99 1165.53,179.57 1166.00,176.00 C1166.47,172.43 1167.33,166.01 1167.92,161.75 C1168.52,157.49 1169.42,150.74 1169.93,146.75 C1170.44,142.76 1171.58,133.88 1172.46,127.00 C1173.34,120.12 1174.51,111.12 1175.07,107.00 C1175.62,102.88 1176.51,96.24 1177.04,92.25 C1179.12,76.54 1180.00,70.37 1180.60,67.25 L 1181.23 64.00 L 1192.86 63.98 C1199.26,63.98 1205.01,63.64 1205.63,63.23 C1206.25,62.83 1207.25,60.03 1207.85,57.00 C1209.09,50.68 1211.86,28.67 1212.24,22.00 L 1212.50 17.50 L 1144.10 17.24 L 1075.70 16.99 L 1076.39 36.81 C1076.87,50.26 1076.74,57.54 1076.01,59.48 C1075.17,61.67 1075.22,62.52 1076.21,63.15 C1076.92,63.60 1082.84,63.98 1089.37,63.98 L 1101.25 64.00 L 1100.67 69.25 C1100.36,72.14 1099.66,77.65 1099.11,81.50 C1098.01,89.33 1096.80,98.54 1094.43,117.00 C1092.30,133.59 1091.34,140.94 1090.06,150.25 C1088.29,163.18 1085.49,184.29 1084.09,195.21 C1083.55,199.45 1082.85,204.40 1082.53,206.21 C1082.21,208.02 1081.47,213.77 1080.87,219.00 C1080.27,224.23 1079.42,231.20 1078.96,234.50 C1077.93,242.01 1076.32,253.67 1074.92,263.75 C1073.26,275.74 1072.23,283.89 1071.45,291.19 L 1070.74 297.88 L 1075.62 298.30 C1084.37,299.05 1148.44,297.96 1149.36,297.04 ZM 1277.35 293.16 C1277.67,290.60 1278.44,284.90 1279.04,280.50 C1279.65,276.10 1280.53,269.58 1281.00,266.00 C1281.47,262.42 1282.33,256.01 1282.92,251.75 C1284.55,240.00 1286.52,224.65 1289.93,197.00 C1291.38,185.24 1290.41,186.00 1304.11,186.00 L 1316.00 186.00 L 1316.00 190.56 C1316.00,193.06 1315.58,197.00 1315.07,199.31 C1314.56,201.61 1313.42,210.02 1312.54,218.00 C1311.65,225.98 1310.67,234.07 1310.35,236.00 C1310.02,237.93 1309.39,242.43 1308.95,246.00 C1308.15,252.37 1306.81,262.52 1304.92,276.50 C1304.40,280.35 1303.71,286.75 1303.38,290.73 L 1302.78 297.95 L 1340.22 298.23 C1360.82,298.38 1378.38,298.36 1379.25,298.19 C1381.38,297.78 1381.99,295.91 1383.11,286.50 C1384.14,277.80 1385.37,268.44 1386.92,257.50 C1388.49,246.44 1389.02,242.30 1390.51,229.50 C1391.28,222.90 1392.19,215.48 1392.55,213.00 C1394.36,200.42 1395.11,193.68 1395.62,185.33 L 1396.19 176.15 L 1391.84 175.61 C1389.45,175.31 1384.92,174.80 1381.77,174.47 L 1376.05 173.86 L 1376.68 167.68 C1377.02,164.28 1377.80,159.48 1378.40,157.00 C1379.43,152.81 1379.74,152.48 1383.00,152.27 C1384.93,152.14 1389.50,151.54 1393.16,150.94 C1401.32,149.61 1401.23,149.79 1403.44,130.50 C1404.32,122.80 1405.48,113.57 1406.01,110.00 C1406.54,106.43 1407.20,101.70 1407.49,99.50 C1407.77,97.30 1408.48,91.90 1409.07,87.50 C1409.65,83.10 1410.52,76.57 1410.99,73.00 C1411.46,69.43 1412.30,63.12 1412.85,59.00 C1413.39,54.88 1414.54,45.65 1415.40,38.50 C1416.26,31.35 1417.21,24.03 1417.52,22.24 C1418.02,19.40 1417.76,18.86 1415.47,17.99 C1413.77,17.34 1381.40,17.08 1324.17,17.24 L 1235.50 17.50 L 1234.78 22.50 C1234.39,25.25 1233.57,31.33 1232.97,36.00 C1232.36,40.67 1231.48,47.20 1231.00,50.50 C1230.01,57.26 1228.42,69.09 1227.09,79.50 C1225.10,95.10 1222.01,118.74 1221.47,122.50 C1221.16,124.70 1220.46,129.88 1219.92,134.00 C1219.38,138.12 1218.53,144.43 1218.03,148.00 C1216.79,156.90 1215.21,168.58 1214.52,174.00 C1214.20,176.48 1213.51,181.43 1212.99,185.00 C1212.46,188.57 1211.37,196.90 1210.56,203.50 C1209.00,216.27 1208.50,220.12 1206.88,232.00 C1206.31,236.12 1205.47,242.43 1205.00,246.00 C1204.53,249.57 1203.68,255.88 1203.11,260.00 C1202.54,264.12 1201.58,271.10 1200.97,275.50 C1198.73,291.71 1198.28,296.52 1198.92,297.24 C1199.56,297.95 1271.87,298.83 1275.13,298.16 C1276.25,297.94 1276.95,296.35 1277.35,293.16 ZM 1791.58 297.61 C1792.24,297.35 1793.03,295.20 1793.32,292.82 C1793.61,290.45 1794.31,285.12 1794.88,281.00 C1798.67,253.73 1799.50,247.34 1800.95,234.50 C1801.57,229.00 1802.49,222.48 1802.99,220.00 C1803.50,217.52 1804.04,212.57 1804.20,209.00 L 1804.50 202.50 L 1767.56 202.24 C1746.08,202.08 1730.24,202.36 1729.71,202.89 C1729.20,203.40 1728.40,206.89 1727.93,210.66 C1727.46,214.42 1726.64,220.43 1726.11,224.00 C1725.57,227.57 1724.66,234.10 1724.08,238.50 C1723.49,242.90 1722.74,247.80 1722.40,249.39 L 1721.78 252.29 L 1711.90 251.69 C1706.47,251.36 1701.06,250.57 1699.89,249.94 C1697.21,248.51 1697.27,247.76 1704.03,202.00 C1704.55,198.43 1705.39,192.35 1705.88,188.50 C1706.37,184.65 1707.26,180.26 1707.86,178.75 L 1708.95 176.00 L 1758.96 176.00 L 1808.96 176.00 L 1809.42 173.75 C1809.67,172.51 1810.12,169.02 1810.42,166.00 C1810.72,162.98 1811.64,155.10 1812.46,148.50 C1813.28,141.90 1813.97,135.04 1813.98,133.26 L 1814.00 130.02 L 1763.75 129.76 L 1713.50 129.50 L 1713.76 127.00 C1714.01,124.58 1715.10,116.41 1716.97,103.00 C1718.73,90.35 1719.94,81.41 1720.93,73.58 C1721.49,69.22 1722.52,65.28 1723.22,64.82 C1723.92,64.37 1729.45,64.11 1735.50,64.25 L 1746.50 64.50 L 1746.35 69.50 C1746.26,72.25 1745.68,78.32 1745.04,83.00 C1744.41,87.68 1743.64,94.54 1743.33,98.25 L 1742.77 105.00 L 1779.64 104.98 C1799.91,104.98 1817.00,104.64 1817.62,104.23 C1818.24,103.83 1819.02,100.80 1819.35,97.50 C1820.04,90.82 1820.58,86.58 1821.98,77.00 C1823.62,65.79 1824.92,55.94 1826.53,42.50 C1827.39,35.35 1828.55,27.14 1829.11,24.27 C1829.68,21.39 1829.85,18.57 1829.51,18.02 C1829.09,17.34 1798.90,17.00 1739.51,17.00 L 1650.14 17.00 L 1649.11 22.25 C1648.54,25.14 1647.37,33.58 1646.51,41.00 C1645.64,48.42 1644.51,57.42 1643.99,61.00 C1643.48,64.57 1642.80,69.53 1642.48,72.00 C1642.16,74.47 1641.44,79.88 1640.88,84.00 C1640.31,88.12 1639.48,94.43 1639.02,98.00 C1638.06,105.59 1637.31,111.02 1635.99,120.00 C1635.46,123.57 1634.37,131.90 1633.56,138.50 C1632.00,151.27 1631.50,155.12 1629.88,167.00 C1629.31,171.12 1628.47,177.43 1628.00,181.00 C1627.53,184.57 1626.69,190.88 1626.12,195.00 C1625.56,199.12 1624.84,204.52 1624.52,207.00 C1624.20,209.48 1623.51,214.43 1622.99,218.00 C1622.46,221.57 1621.34,230.12 1620.49,237.00 C1619.65,243.88 1618.53,252.65 1618.00,256.50 C1617.47,260.35 1616.81,265.30 1616.53,267.50 C1616.24,269.70 1615.55,274.88 1614.98,279.00 C1613.02,293.15 1612.75,295.92 1613.25,297.21 C1613.65,298.25 1630.64,298.46 1702.06,298.29 C1750.63,298.17 1790.92,297.86 1791.58,297.61 ZM 1907.70 298.35 C1920.51,297.61 1919.77,298.22 1921.11,287.25 C1922.05,279.56 1923.63,267.80 1924.50,262.00 C1924.79,260.08 1925.51,254.68 1926.09,250.00 C1926.67,245.32 1927.58,238.57 1928.09,235.00 C1928.61,231.43 1929.51,224.45 1930.10,219.50 C1931.33,209.07 1932.41,200.64 1933.92,189.75 C1934.52,185.49 1935.44,178.74 1935.99,174.75 C1936.53,170.76 1937.21,165.93 1937.50,164.00 C1937.79,162.07 1938.51,156.68 1939.09,152.00 C1939.67,147.32 1940.58,140.57 1941.09,137.00 C1941.61,133.43 1942.51,126.45 1943.10,121.50 C1944.34,110.97 1945.44,102.41 1946.90,92.00 C1947.47,87.88 1948.39,80.90 1948.94,76.50 C1950.62,63.00 1949.58,64.00 1961.87,63.99 C1976.96,63.97 1976.53,64.19 1977.87,55.67 C1980.71,37.68 1982.43,22.37 1982.10,18.24 C1982.02,17.24 1968.58,17.04 1916.75,17.24 L 1851.50 17.50 L 1850.74 23.00 C1850.32,26.02 1849.56,31.65 1849.05,35.50 C1848.54,39.35 1847.64,46.10 1847.04,50.50 C1846.44,54.90 1845.85,59.62 1845.72,61.00 L 1845.50 63.50 L 1858.00 64.00 L 1870.50 64.50 L 1870.34 68.50 C1870.26,70.70 1869.69,75.99 1869.09,80.25 C1868.49,84.51 1867.59,91.26 1867.09,95.25 C1863.81,121.42 1861.93,136.03 1861.41,139.50 C1861.07,141.70 1860.43,146.43 1859.98,150.00 C1859.52,153.57 1858.67,159.99 1858.08,164.25 C1857.48,168.51 1856.57,175.26 1856.03,179.25 C1855.50,183.24 1854.64,189.65 1854.11,193.50 C1853.58,197.35 1852.40,206.35 1851.48,213.50 C1850.57,220.65 1849.38,229.88 1848.84,234.00 C1848.29,238.12 1847.47,244.43 1847.00,248.00 C1846.53,251.57 1845.67,257.99 1845.08,262.25 C1841.18,290.30 1840.62,295.58 1841.35,297.46 C1841.86,298.79 1845.60,299.00 1869.22,299.00 C1884.22,298.99 1901.54,298.70 1907.70,298.35 ZM 1570.25 297.35 L 1586.81 296.69 L 1587.50 293.60 C1587.88,291.89 1588.62,287.12 1589.16,283.00 C1589.69,278.88 1590.53,272.58 1591.03,269.00 C1591.53,265.42 1592.37,259.12 1592.90,255.00 C1593.43,250.88 1594.60,241.88 1595.50,235.00 C1596.40,228.12 1597.52,219.12 1597.99,215.00 C1598.46,210.88 1599.17,206.67 1599.57,205.65 C1600.02,204.48 1599.77,203.47 1598.90,202.91 C1598.13,202.43 1581.18,202.02 1561.23,202.02 L 1524.95 202.00 L 1523.87 204.75 C1523.27,206.26 1522.40,210.43 1521.93,214.00 C1521.46,217.57 1520.64,223.43 1520.12,227.00 C1519.59,230.57 1518.63,237.09 1517.99,241.48 C1517.35,245.88 1516.62,249.81 1516.36,250.23 C1516.09,250.66 1510.45,251.00 1503.80,251.00 L 1491.72 251.00 L 1492.42 245.25 C1493.64,235.14 1496.10,217.46 1497.95,205.50 C1498.45,202.20 1499.34,196.12 1499.91,192.00 C1500.49,187.88 1501.31,182.70 1501.75,180.50 L 1502.53 176.50 L 1553.15 176.24 L 1603.76 175.98 L 1604.32 170.24 C1604.63,167.08 1605.32,161.35 1605.85,157.50 C1608.03,141.77 1609.00,131.81 1608.46,130.93 C1608.11,130.38 1587.76,130.00 1557.96,130.00 L 1508.03 130.00 L 1508.58 123.75 C1508.88,120.31 1509.35,116.60 1509.64,115.50 C1509.92,114.40 1510.59,109.90 1511.14,105.50 C1511.68,101.10 1512.51,94.80 1512.99,91.50 C1513.46,88.20 1514.30,81.79 1514.86,77.25 C1516.48,63.97 1515.30,65.00 1528.90,65.00 C1535.37,65.00 1540.87,65.20 1541.11,65.44 C1541.58,65.91 1540.89,72.83 1538.97,87.00 C1538.34,91.68 1537.75,97.53 1537.66,100.00 L 1537.50 104.50 L 1575.00 104.50 L 1612.50 104.50 L 1613.24 99.50 C1613.65,96.75 1614.42,91.35 1614.96,87.50 C1615.49,83.65 1616.38,77.35 1616.93,73.50 C1618.70,61.23 1621.01,43.48 1623.67,21.74 L 1624.26 16.99 L 1534.42 17.24 L 1444.58 17.50 L 1443.83 21.00 C1443.41,22.92 1442.34,30.35 1441.45,37.50 C1440.55,44.65 1439.38,53.88 1438.84,58.00 C1438.29,62.12 1437.47,68.43 1437.00,72.00 C1436.20,78.15 1435.10,86.20 1433.03,101.00 C1432.03,108.21 1430.72,118.16 1429.08,131.00 C1428.48,135.68 1427.75,141.30 1427.45,143.50 C1426.85,148.03 1425.40,158.90 1423.93,170.00 C1423.39,174.12 1422.53,180.43 1422.03,184.00 C1420.22,196.97 1418.98,206.14 1418.07,213.25 C1417.56,217.24 1416.40,226.12 1415.50,233.00 C1414.60,239.88 1413.43,248.88 1412.90,253.00 C1412.37,257.12 1411.51,263.65 1410.98,267.50 C1410.45,271.35 1409.58,277.88 1409.05,282.00 C1408.52,286.12 1407.79,290.73 1407.43,292.23 C1405.95,298.39 1401.00,298.00 1480.81,298.00 C1520.89,298.00 1561.14,297.71 1570.25,297.35 ZM 316.33 163.25 C316.65,160.09 317.38,154.01 317.95,149.75 C318.53,145.49 319.45,138.62 320.00,134.50 C320.55,130.38 321.45,123.62 322.00,119.50 C323.77,106.21 324.85,97.78 326.47,84.50 C327.34,77.35 328.40,69.93 328.82,68.00 L 329.58 64.50 L 341.54 64.50 L 353.50 64.50 L 353.23 70.50 C353.09,73.80 352.52,79.43 351.97,83.00 C351.41,86.57 350.51,93.55 349.95,98.50 C349.40,103.45 348.49,110.88 347.94,115.00 C347.39,119.12 346.50,125.88 345.96,130.00 C345.42,134.12 344.55,140.65 344.02,144.50 C343.49,148.35 342.66,154.92 342.18,159.11 C341.69,163.29 340.98,167.23 340.59,167.86 C340.12,168.61 335.78,169.00 327.82,169.00 L 315.76 169.00 L 316.33 163.25 ZM 1298.41 135.25 C1298.77,133.19 1299.76,125.88 1300.61,119.00 C1302.15,106.42 1303.38,97.00 1305.04,85.00 C1305.54,81.43 1306.24,75.47 1306.61,71.77 C1307.25,65.21 1307.34,65.03 1310.38,64.47 C1312.10,64.15 1317.78,64.03 1323.00,64.20 L 1332.50 64.50 L 1332.33 68.00 C1332.24,69.93 1331.68,74.99 1331.08,79.25 C1330.02,86.85 1328.99,94.50 1327.15,108.50 C1326.64,112.35 1325.67,120.22 1325.00,126.00 C1324.32,131.77 1323.61,137.06 1323.42,137.75 C1323.16,138.67 1319.68,139.00 1310.40,139.00 L 1297.74 139.00 L 1298.41 135.25 Z" fill="rgba(0,0,0,1)"/>
</g>
</svg>